<?xml version="1.0" encoding="iso-8859-1"?>
<!-- Generator: Adobe Illustrator 19.0.0, SVG Export Plug-In . SVG Version: 6.00 Build 0)  -->
<svg version="1.1" id="Capa_1" xmlns="http://www.w3.org/2000/svg" xmlns:xlink="http://www.w3.org/1999/xlink" x="0px" y="0px"
	 viewBox="0 0 512 512" style="enable-background:new 0 0 512 512;" xml:space="preserve">
<polygon style="fill:#D8DCE5;" points="183.123,481.796 328.878,481.796 315.281,401.094 196.718,401.094 "/>
<polygon style="fill:#C3C8D1;" points="196.718,401.094 183.123,481.796 203.727,481.796 217.323,401.094 "/>
<path style="fill:#E4EAF8;" d="M367.149,495.632c0-9.039-7.33-16.369-16.369-16.369H161.221c-9.04,0-16.368,7.33-16.368,16.369
	c0,9.038,7.328,16.368,16.368,16.368h189.558C359.819,512,367.149,504.67,367.149,495.632z"/>
<path style="fill:#D8DCE5;" d="M350.78,493.112H161.221c-5.519,0-10.389-2.74-13.354-6.924c-1.892,2.67-3.014,5.923-3.014,9.445
	c0,9.038,7.328,16.368,16.368,16.368h189.558c9.039,0,16.369-7.33,16.369-16.368c0-3.521-1.122-6.775-3.015-9.445
	C361.169,490.373,356.299,493.112,350.78,493.112z"/>
<path style="fill:#707487;" d="M474.446,23.606H275.187h-39.239H37.554c-19.501,0-35.365,15.864-35.365,35.364v311.31
	c0,19.501,15.864,35.365,35.365,35.365h436.892c19.501,0,35.365-15.864,35.365-35.365V58.97
	C509.811,39.471,493.947,23.606,474.446,23.606z"/>
<path style="fill:#5B5D6E;" d="M23.137,370.28V58.97c0-19.5,15.864-35.364,35.365-35.364H37.554
	c-19.501,0-35.365,15.864-35.365,35.364v311.31c0,19.501,15.864,35.365,35.365,35.365h20.948
	C39.002,405.645,23.137,389.781,23.137,370.28z"/>
<circle style="fill:#D8DCE5;" cx="256.003" cy="379.121" r="10.645"/>
<path style="fill:#FFC850;" d="M456.403,59.692h-98.426H153.158H55.598c-9.567,0-17.322,7.755-17.322,17.322v259.705
	c0,9.566,7.755,17.322,17.322,17.322h400.805c9.567,0,17.323-7.756,17.323-17.322V77.015
	C473.725,67.447,465.971,59.692,456.403,59.692z"/>
<path style="fill:#F9B428;" d="M59.439,336.719V77.015c0-9.567,7.755-17.322,17.322-17.322H55.598
	c-9.567,0-17.322,7.755-17.322,17.322v259.705c0,9.566,7.755,17.322,17.322,17.322h21.164
	C67.196,354.041,59.439,346.285,59.439,336.719z"/>
<path style="fill:#00C3FF;" d="M456.403,59.692h-98.426H153.158c-8.009,0-64.307,0-72.555,0v40.657h55.018l0,0h320.782l0,0h17.323
	V77.015C473.725,67.447,465.971,59.692,456.403,59.692z"/>
<path style="fill:#FF5050;" d="M55.598,59.692c-9.567,0-17.322,7.754-17.322,17.322v23.336h44.387V59.692H55.598z"/>
<path style="fill:#ED3A3A;" d="M59.439,77.015c0-9.567,7.754-17.321,17.32-17.322H55.598c-5.381,0-10.189,2.454-13.366,6.304
	c-1.412,1.711-2.501,3.698-3.177,5.867c-0.506,1.627-0.778,3.357-0.778,5.152v23.336H59.44L59.439,77.015L59.439,77.015z"/>
<path style="fill:#E4EAF8;" d="M381.978,114.737h-22.814c-0.769,0-1.424-0.544-1.577-1.298
	c-2.698-13.228-7.899-25.544-15.094-36.429c-0.424-0.641-0.345-1.489,0.199-2.032l16.134-16.135c3.102-3.102,3.102-8.133,0-11.235
	l-16.511-16.511c-3.102-3.102-8.133-3.102-11.236,0l-16.134,16.134c-0.544,0.544-1.391,0.624-2.032,0.199
	c-10.885-7.195-23.201-12.396-36.428-15.094c-0.754-0.154-1.298-0.809-1.298-1.577V7.944c0-4.388-3.557-7.944-7.944-7.944h-23.35
	c-4.388,0-7.944,3.557-7.944,7.944v22.813c0,0.769-0.544,1.424-1.298,1.577c-13.228,2.698-25.544,7.899-36.429,15.094
	c-0.641,0.424-1.489,0.345-2.032-0.199l-16.134-16.134c-3.102-3.102-8.133-3.102-11.235,0L152.31,47.606
	c-3.102,3.102-3.102,8.133,0,11.235l16.134,16.134c0.544,0.544,0.624,1.391,0.199,2.032c-7.195,10.885-12.396,23.201-15.094,36.429
	c-0.154,0.754-0.809,1.298-1.577,1.298h-22.813c-4.388,0-7.944,3.557-7.944,7.944v23.349c0,4.388,3.557,7.945,7.944,7.945h22.814
	c0.769,0,1.424,0.544,1.577,1.298c2.698,13.228,7.899,25.544,15.094,36.428c0.424,0.641,0.345,1.489-0.199,2.032l-16.134,16.134
	c-3.102,3.102-3.102,8.133,0,11.235l16.511,16.511c3.102,3.102,8.133,3.102,11.235,0l16.134-16.134
	c0.544-0.544,1.391-0.624,2.032-0.199c10.884,7.195,23.201,12.395,36.429,15.093c0.753,0.154,1.298,0.809,1.298,1.577v22.813
	c0,4.388,3.557,7.945,7.945,7.945h23.349c4.388,0,7.944-3.557,7.944-7.944v-22.814c0-0.769,0.544-1.424,1.298-1.577
	c13.228-2.698,25.544-7.899,36.429-15.093c0.641-0.424,1.489-0.345,2.032,0.199l16.134,16.134c3.102,3.102,8.133,3.102,11.236,0
	l16.511-16.511c3.102-3.102,3.102-8.133,0-11.235l-16.134-16.134c-0.544-0.544-0.624-1.391-0.199-2.032
	c7.195-10.884,12.396-23.201,15.094-36.429c0.154-0.753,0.809-1.298,1.577-1.298h22.813c4.388,0,7.944-3.557,7.944-7.945v-23.35
	C389.923,118.293,386.366,114.737,381.978,114.737z"/>
<g>
	<path style="fill:#D8DCE5;" d="M168.443,74.976c0.544,0.544,0.624,1.391,0.199,2.032c-7.195,10.885-12.396,23.201-15.094,36.429
		c-0.154,0.754-0.808,1.298-1.577,1.298h19.864c0.769,0,1.424-0.544,1.577-1.298c2.698-13.228,7.899-25.544,15.094-36.429
		c0.424-0.641,0.345-1.489-0.199-2.032l-16.134-16.134c-3.102-3.102-3.102-8.133,0-11.235l12.197-12.197l-4.314-4.314
		c-3.102-3.102-8.133-3.102-11.235,0L152.31,47.607c-3.102,3.102-3.102,8.133,0,11.235L168.443,74.976z"/>
	<path style="fill:#D8DCE5;" d="M141.076,146.03v-23.349c0-4.388,3.557-7.944,7.945-7.944h-19.864c-4.388,0-7.944,3.557-7.944,7.944
		v23.349c0,4.387,3.557,7.945,7.944,7.945h19.864C144.633,153.975,141.076,150.418,141.076,146.03z"/>
	<path style="fill:#D8DCE5;" d="M172.172,221.103c-3.102-3.102-3.102-8.133,0-11.235l16.134-16.134
		c0.544-0.544,0.624-1.391,0.199-2.032c-7.195-10.885-12.396-23.201-15.093-36.429c-0.154-0.754-0.808-1.298-1.577-1.298h-19.864
		c0.769,0,1.424,0.544,1.577,1.298c2.698,13.228,7.899,25.544,15.093,36.429c0.424,0.641,0.345,1.489-0.199,2.032l-16.134,16.134
		c-3.102,3.102-3.102,8.133,0,11.235l16.511,16.511c3.102,3.102,8.133,3.102,11.235,0l4.314-4.314L172.172,221.103z"/>
	<circle style="fill:#D8DCE5;" cx="255.745" cy="134.351" r="68.198"/>
</g>
<path style="fill:#C3C8D1;" d="M207.408,134.355c0-34.29,25.311-62.66,58.267-67.47c-3.243-0.473-6.557-0.728-9.931-0.728
	c-37.664,0-68.198,30.534-68.198,68.198s30.534,68.198,68.198,68.198c3.375,0,6.688-0.255,9.931-0.728
	C232.718,197.015,207.408,168.646,207.408,134.355z"/>
<path style="fill:#E4EAF8;" d="M287.374,112.273l-28.586-16.504c-1.993-1.15-4.449-1.15-6.441,0l-28.586,16.504
	c-1.993,1.15-3.22,3.277-3.22,5.578v33.007c0,2.301,1.227,4.428,3.22,5.578l28.586,16.504c1.993,1.151,4.449,1.151,6.441,0
	l28.586-16.504c1.993-1.15,3.22-3.277,3.22-5.578v-33.007C290.594,115.551,289.367,113.424,287.374,112.273z M255.567,145.831
	c-6.338,0-11.476-5.139-11.476-11.476c0-6.338,5.139-11.476,11.476-11.476c6.338,0,11.476,5.138,11.476,11.476
	C267.044,140.694,261.906,145.831,255.567,145.831z"/>
<path style="fill:#CED2DB;" d="M243.625,156.437c-1.993-1.15-3.22-3.277-3.22-5.578v-33.007c0-2.301,1.227-4.428,3.22-5.578
	L265.5,99.645l-6.711-3.875c-1.993-1.15-4.449-1.15-6.441,0l-28.586,16.504c-1.993,1.15-3.22,3.277-3.22,5.578v33.007
	c0,2.301,1.227,4.428,3.22,5.578l28.586,16.504c1.993,1.151,4.449,1.151,6.441,0l6.711-3.875L243.625,156.437z"/>
<path style="fill:#D8DCE5;" d="M255.812,7.944c0-4.387,3.557-7.944,7.945-7.944h-19.864c-4.388,0-7.944,3.557-7.944,7.944v22.813
	c0,0.769-0.544,1.424-1.298,1.577l16.021-1.195c2.899-0.216,5.141-2.631,5.141-5.538V7.944z"/>
<g>
</g>
<g>
</g>
<g>
</g>
<g>
</g>
<g>
</g>
<g>
</g>
<g>
</g>
<g>
</g>
<g>
</g>
<g>
</g>
<g>
</g>
<g>
</g>
<g>
</g>
<g>
</g>
<g>
</g>
</svg>
